<svg width="515.401" height="93" viewBox="0 0 515.401 93" xmlns="http://www.w3.org/2000/svg">
<g id="svgGroup" stroke-linecap="round" fill-rule="evenodd" font-size="30pt" stroke="#000" stroke-width="0.0mm" fill="#181C32" style="stroke:#181C32;stroke-width:0.0mm;fill:#181C32">
<path d="M 301.801 71 L 294.801 71 A 5.133 5.133 0 0 1 293.783 70.906 Q 293.182 70.784 292.72 70.506 A 2.708 2.708 0 0 1 292.201 70.1 Q 291.472 69.372 291.071 68.905 A 7.606 7.606 0 0 1 290.901 68.7 L 262.901 27.1 L 262.901 68.3 A 2.591 2.591 0 0 1 262.126 70.175 A 3.269 3.269 0 0 1 262.101 70.2 A 2.711 2.711 0 0 1 261.144 70.833 A 2.634 2.634 0 0 1 260.201 71 L 252.101 71 A 2.591 2.591 0 0 1 250.226 70.225 A 3.269 3.269 0 0 1 250.201 70.2 A 2.711 2.711 0 0 1 249.568 69.243 A 2.634 2.634 0 0 1 249.401 68.3 L 249.401 3.7 A 2.591 2.591 0 0 1 250.176 1.825 A 3.269 3.269 0 0 1 250.201 1.8 A 2.711 2.711 0 0 1 251.158 1.167 A 2.634 2.634 0 0 1 252.101 1 L 259.101 1 A 5.133 5.133 0 0 1 260.119 1.095 Q 260.72 1.216 261.182 1.495 A 2.708 2.708 0 0 1 261.701 1.9 Q 262.429 2.629 262.83 3.095 A 7.606 7.606 0 0 1 263.001 3.3 L 291.001 44.9 L 291.001 3.7 A 2.591 2.591 0 0 1 291.776 1.825 A 3.269 3.269 0 0 1 291.801 1.8 A 2.711 2.711 0 0 1 292.758 1.167 A 2.634 2.634 0 0 1 293.701 1 L 301.801 1 A 2.591 2.591 0 0 1 303.676 1.775 A 3.269 3.269 0 0 1 303.701 1.8 A 2.711 2.711 0 0 1 304.334 2.757 A 2.634 2.634 0 0 1 304.501 3.7 L 304.501 68.3 A 2.591 2.591 0 0 1 303.726 70.175 A 3.269 3.269 0 0 1 303.701 70.2 A 2.711 2.711 0 0 1 302.744 70.833 A 2.634 2.634 0 0 1 301.801 71 Z M 122.501 69.7 L 122.501 66 A 13.169 13.169 0 0 1 121.768 66.756 Q 121.173 67.327 120.401 67.95 Q 119.101 69 117.251 69.9 Q 115.401 70.8 112.951 71.4 Q 110.539 71.991 107.498 72 A 31.895 31.895 0 0 1 107.401 72 Q 102.401 72 98.351 70.05 Q 94.301 68.1 91.451 64.85 A 24.951 24.951 0 0 1 86.977 57.416 A 28.08 28.08 0 0 1 86.951 57.35 Q 85.301 53.1 85.101 48.5 A 40.608 40.608 0 0 1 85.04 47.305 Q 85.013 46.58 85.005 45.762 A 74.272 74.272 0 0 1 85.001 45 A 69.24 69.24 0 0 1 85.015 43.57 Q 85.038 42.438 85.101 41.5 Q 85.301 36.9 86.951 32.65 Q 88.601 28.4 91.451 25.15 Q 94.301 21.9 98.351 19.95 Q 102.401 18 107.401 18 A 27.498 27.498 0 0 1 110.251 18.141 A 20.138 20.138 0 0 1 112.951 18.6 A 25.183 25.183 0 0 1 115.234 19.269 A 18.522 18.522 0 0 1 117.251 20.1 A 19.36 19.36 0 0 1 118.914 21.007 A 14.146 14.146 0 0 1 120.401 22.05 Q 121.701 23.1 122.501 24 L 122.501 21.7 A 2.591 2.591 0 0 1 123.276 19.825 A 3.269 3.269 0 0 1 123.301 19.8 A 2.711 2.711 0 0 1 124.258 19.167 A 2.634 2.634 0 0 1 125.201 19 L 132.801 19 A 2.591 2.591 0 0 1 134.676 19.775 A 3.269 3.269 0 0 1 134.701 19.8 A 2.711 2.711 0 0 1 135.334 20.757 A 2.634 2.634 0 0 1 135.501 21.7 L 135.501 68.6 A 34.63 34.63 0 0 1 134.842 75.582 Q 133.969 79.817 131.942 83.034 A 18.416 18.416 0 0 1 128.751 86.85 A 22.433 22.433 0 0 1 119.377 91.865 Q 115.995 92.787 111.985 92.96 A 43.717 43.717 0 0 1 110.101 93 Q 105.001 93 100.651 91.65 A 29.928 29.928 0 0 1 96.237 89.904 A 23.797 23.797 0 0 1 93.101 88.05 A 21.396 21.396 0 0 1 89.912 85.329 A 17.542 17.542 0 0 1 88.001 82.95 Q 86.101 80.1 85.901 77.1 A 2.52 2.52 0 0 1 85.89 76.872 Q 85.89 76.013 86.504 75.348 A 2.965 2.965 0 0 1 86.651 75.2 A 2.983 2.983 0 0 1 87.563 74.6 A 2.707 2.707 0 0 1 88.601 74.4 L 95.401 74.4 Q 96.801 74.4 97.801 75.35 A 33.231 33.231 0 0 1 98.618 76.153 Q 98.985 76.526 99.298 76.872 A 18.914 18.914 0 0 1 99.501 77.1 A 8.986 8.986 0 0 0 101.601 79.063 A 11.666 11.666 0 0 0 103.051 79.9 A 8.297 8.297 0 0 0 104.659 80.468 Q 106.295 80.882 108.676 80.974 A 36.938 36.938 0 0 0 110.101 81 A 14.734 14.734 0 0 0 113.545 80.579 A 17.082 17.082 0 0 0 114.401 80.35 Q 116.601 79.7 118.401 78.3 A 10.896 10.896 0 0 0 121.167 75.081 A 12.615 12.615 0 0 0 121.351 74.75 A 9.567 9.567 0 0 0 122.339 71.77 A 12.73 12.73 0 0 0 122.501 69.7 Z M 488.601 41.4 L 488.601 68.3 A 2.591 2.591 0 0 1 487.826 70.175 A 3.269 3.269 0 0 1 487.801 70.2 A 2.711 2.711 0 0 1 486.844 70.833 A 2.634 2.634 0 0 1 485.901 71 L 478.301 71 A 2.591 2.591 0 0 1 476.426 70.225 A 3.269 3.269 0 0 1 476.401 70.2 A 2.711 2.711 0 0 1 475.768 69.243 A 2.634 2.634 0 0 1 475.601 68.3 L 475.601 42.9 A 20.881 20.881 0 0 0 475.247 38.938 Q 474.606 35.62 472.801 33.3 A 8.924 8.924 0 0 0 467.834 30.126 Q 466.31 29.73 464.479 29.702 A 18.345 18.345 0 0 0 464.201 29.7 A 12.573 12.573 0 0 0 460.542 30.206 A 9.732 9.732 0 0 0 455.851 33.3 A 12.357 12.357 0 0 0 453.314 38.382 Q 452.865 40.182 452.809 42.291 A 22.894 22.894 0 0 0 452.801 42.9 L 452.801 68.3 A 2.591 2.591 0 0 1 452.026 70.175 A 3.269 3.269 0 0 1 452.001 70.2 A 2.711 2.711 0 0 1 451.044 70.833 A 2.634 2.634 0 0 1 450.101 71 L 442.501 71 A 2.591 2.591 0 0 1 440.626 70.225 A 3.269 3.269 0 0 1 440.601 70.2 A 2.711 2.711 0 0 1 439.968 69.243 A 2.634 2.634 0 0 1 439.801 68.3 L 439.801 21.7 A 2.591 2.591 0 0 1 440.576 19.825 A 3.269 3.269 0 0 1 440.601 19.8 A 2.711 2.711 0 0 1 441.558 19.167 A 2.634 2.634 0 0 1 442.501 19 L 450.101 19 A 2.591 2.591 0 0 1 451.976 19.775 A 3.269 3.269 0 0 1 452.001 19.8 A 2.711 2.711 0 0 1 452.634 20.757 A 2.634 2.634 0 0 1 452.801 21.7 L 452.801 24 A 22.29 22.29 0 0 1 458.683 19.807 A 25.053 25.053 0 0 1 458.901 19.7 A 16.383 16.383 0 0 1 463.217 18.331 A 22.79 22.79 0 0 1 467.201 18 A 32.573 32.573 0 0 1 471.495 18.267 Q 473.767 18.57 475.679 19.216 A 17.111 17.111 0 0 1 477.401 19.9 A 18.948 18.948 0 0 1 481.607 22.532 A 16.223 16.223 0 0 1 484.001 25 Q 486.501 28.2 487.551 32.45 A 36.682 36.682 0 0 1 488.584 40.232 A 41.34 41.34 0 0 1 488.601 41.4 Z M 378.201 48.6 L 378.201 21.7 A 2.591 2.591 0 0 1 378.976 19.825 A 3.269 3.269 0 0 1 379.001 19.8 A 2.711 2.711 0 0 1 379.958 19.167 A 2.634 2.634 0 0 1 380.901 19 L 388.501 19 A 2.591 2.591 0 0 1 390.376 19.775 A 3.269 3.269 0 0 1 390.401 19.8 A 2.711 2.711 0 0 1 391.034 20.757 A 2.634 2.634 0 0 1 391.201 21.7 L 391.201 47.1 A 23.028 23.028 0 0 0 391.502 50.942 Q 391.862 53.064 392.65 54.783 A 11.869 11.869 0 0 0 393.751 56.7 A 8.064 8.064 0 0 0 398.208 59.794 Q 399.604 60.205 401.301 60.282 A 17.62 17.62 0 0 0 402.101 60.3 A 12.446 12.446 0 0 0 405.449 59.875 A 8.888 8.888 0 0 0 410.201 56.7 Q 413.001 53.1 413.001 47.1 L 413.001 21.7 A 2.591 2.591 0 0 1 413.776 19.825 A 3.269 3.269 0 0 1 413.801 19.8 A 2.711 2.711 0 0 1 414.758 19.167 A 2.634 2.634 0 0 1 415.701 19 L 423.301 19 A 2.591 2.591 0 0 1 425.176 19.775 A 3.269 3.269 0 0 1 425.201 19.8 A 2.711 2.711 0 0 1 425.834 20.757 A 2.634 2.634 0 0 1 426.001 21.7 L 426.001 68.3 A 2.591 2.591 0 0 1 425.226 70.175 A 3.269 3.269 0 0 1 425.201 70.2 A 2.711 2.711 0 0 1 424.244 70.833 A 2.634 2.634 0 0 1 423.301 71 L 415.701 71 A 2.591 2.591 0 0 1 413.826 70.225 A 3.269 3.269 0 0 1 413.801 70.2 A 2.711 2.711 0 0 1 413.168 69.243 A 2.634 2.634 0 0 1 413.001 68.3 L 413.001 66 A 22.002 22.002 0 0 1 410.065 68.445 A 28.702 28.702 0 0 1 407.301 70.15 A 14.71 14.71 0 0 1 403.033 71.646 Q 401.201 72 399.101 72 A 32.285 32.285 0 0 1 394.842 71.736 Q 392.654 71.444 390.823 70.831 A 16.305 16.305 0 0 1 389.001 70.1 A 18.107 18.107 0 0 1 384.863 67.427 A 15.65 15.65 0 0 1 382.601 65 A 19.336 19.336 0 0 1 379.586 58.98 A 22.848 22.848 0 0 1 379.201 57.55 A 38.378 38.378 0 0 1 378.218 49.841 A 43.358 43.358 0 0 1 378.201 48.6 Z M 47.301 38.9 L 47.301 68.3 A 2.591 2.591 0 0 1 46.526 70.175 A 3.269 3.269 0 0 1 46.501 70.2 A 2.711 2.711 0 0 1 45.544 70.833 A 2.634 2.634 0 0 1 44.601 71 L 37.001 71 A 2.591 2.591 0 0 1 35.126 70.225 A 3.269 3.269 0 0 1 35.101 70.2 A 2.711 2.711 0 0 1 34.468 69.243 A 2.634 2.634 0 0 1 34.301 68.3 L 34.301 65 A 14.569 14.569 0 0 1 31.451 67.918 Q 30.041 69.021 28.251 69.95 Q 24.976 71.65 20.223 71.94 A 33.164 33.164 0 0 1 18.201 72 Q 13.901 72 10.501 70.85 A 17.672 17.672 0 0 1 7.199 69.36 A 14.248 14.248 0 0 1 4.801 67.6 Q 2.501 65.5 1.251 62.65 A 15.013 15.013 0 0 1 0.038 57.553 A 17.766 17.766 0 0 1 0.001 56.4 A 15.61 15.61 0 0 1 0.69 51.647 A 12.397 12.397 0 0 1 4.901 45.6 A 22.805 22.805 0 0 1 10.422 42.409 Q 12.935 41.369 15.942 40.703 A 42.919 42.919 0 0 1 18.001 40.3 L 34.301 37.5 A 9.721 9.721 0 0 0 34.075 35.33 Q 33.754 33.93 32.978 32.936 A 5.339 5.339 0 0 0 31.601 31.7 A 10.646 10.646 0 0 0 28.152 30.326 Q 26.746 30.021 25.122 30.001 A 18.569 18.569 0 0 0 24.901 30 Q 22.401 30 21.001 30.7 A 11.071 11.071 0 0 0 19.123 31.899 A 13.429 13.429 0 0 0 18.301 32.6 A 8.711 8.711 0 0 1 17.7 33.091 Q 17.391 33.32 17.102 33.482 A 3.82 3.82 0 0 1 16.651 33.7 A 4.223 4.223 0 0 1 15.441 33.981 A 5.085 5.085 0 0 1 15.001 34 L 5.701 34 A 2.767 2.767 0 0 1 4.789 33.855 A 2.419 2.419 0 0 1 4.001 33.4 A 1.548 1.548 0 0 1 3.585 32.857 Q 3.406 32.456 3.476 31.944 A 2.436 2.436 0 0 1 3.501 31.8 Q 3.858 29.927 5.05 27.815 A 20.193 20.193 0 0 1 5.351 27.3 A 15.139 15.139 0 0 1 7.362 24.695 A 20.219 20.219 0 0 1 9.451 22.8 A 19.633 19.633 0 0 1 12.812 20.675 A 26.211 26.211 0 0 1 15.951 19.35 A 22.986 22.986 0 0 1 20.254 18.317 Q 22.294 18.02 24.593 18.001 A 38.109 38.109 0 0 1 24.901 18 A 33.193 33.193 0 0 1 29.966 18.37 A 25.781 25.781 0 0 1 34.101 19.35 A 20.999 20.999 0 0 1 38.974 21.652 A 18.476 18.476 0 0 1 41.151 23.3 Q 44.101 25.9 45.701 29.85 A 21.45 21.45 0 0 1 47.032 34.91 A 28.422 28.422 0 0 1 47.301 38.9 Z M 195.801 43.4 L 195.801 47.9 A 2.591 2.591 0 0 1 195.026 49.775 A 3.269 3.269 0 0 1 195.001 49.8 A 2.711 2.711 0 0 1 194.044 50.433 A 2.634 2.634 0 0 1 193.101 50.6 L 159.701 50.6 Q 159.701 52.9 160.651 54.65 Q 161.601 56.4 163.201 57.6 A 10.96 10.96 0 0 0 166.131 59.154 A 12.841 12.841 0 0 0 166.901 59.4 Q 169.001 60 171.201 60 Q 174.401 60 176.401 59.35 Q 178.401 58.7 179.701 57.7 Q 180.801 56.9 181.501 56.6 Q 182.201 56.3 183.401 56.3 L 191.401 56.3 A 2.749 2.749 0 0 1 193.294 57.048 A 3.559 3.559 0 0 1 193.351 57.1 A 2.552 2.552 0 0 1 193.857 57.747 Q 194.111 58.219 194.111 58.772 A 2.52 2.52 0 0 1 194.101 59 A 4.168 4.168 0 0 1 193.907 59.953 Q 193.548 61.088 192.551 62.6 A 13.248 13.248 0 0 1 191.005 64.506 Q 189.832 65.719 188.201 66.9 Q 185.301 69 181.051 70.5 A 25.314 25.314 0 0 1 176.232 71.659 Q 173.943 71.989 171.367 72 A 41.574 41.574 0 0 1 171.201 72 A 27.846 27.846 0 0 1 165.233 71.383 A 23.173 23.173 0 0 1 161.051 70.05 Q 156.501 68.1 153.301 64.5 A 24.326 24.326 0 0 1 148.969 57.464 A 28.507 28.507 0 0 1 148.401 55.95 A 31.245 31.245 0 0 1 146.902 49.001 A 38.809 38.809 0 0 1 146.701 45 A 32.86 32.86 0 0 1 147.823 36.329 A 30.276 30.276 0 0 1 148.401 34.45 A 26.179 26.179 0 0 1 151.707 27.881 A 23.842 23.842 0 0 1 153.301 25.85 Q 156.501 22.2 161.051 20.1 A 22.914 22.914 0 0 1 168.466 18.131 A 27.925 27.925 0 0 1 171.201 18 A 26.45 26.45 0 0 1 177.325 18.685 A 22.33 22.33 0 0 1 181.351 20.05 A 23.986 23.986 0 0 1 188.174 24.608 A 22.729 22.729 0 0 1 189.101 25.55 A 24.375 24.375 0 0 1 193.996 33.505 A 27.664 27.664 0 0 1 194.051 33.65 Q 195.801 38.3 195.801 43.4 Z M 347.802 18.509 A 30.713 30.713 0 0 0 342.101 18 A 32.363 32.363 0 0 0 338.444 18.201 A 25.701 25.701 0 0 0 332.151 19.7 A 26.943 26.943 0 0 0 331.057 20.145 A 23.3 23.3 0 0 0 324.451 24.4 Q 321.201 27.4 319.251 31.4 Q 317.301 35.4 317.001 40 A 16.275 16.275 0 0 0 316.991 40.091 Q 316.898 40.97 316.851 42.3 Q 316.801 43.7 316.801 45.1 Q 316.801 46.5 316.851 47.85 A 46.582 46.582 0 0 0 316.888 48.659 Q 316.932 49.485 317.001 50.1 Q 317.401 54.7 319.301 58.7 Q 321.201 62.7 324.451 65.65 A 22.471 22.471 0 0 0 326.388 67.221 A 25.007 25.007 0 0 0 332.151 70.3 A 24.733 24.733 0 0 0 336.399 71.492 A 30.713 30.713 0 0 0 342.101 72 A 32.363 32.363 0 0 0 345.758 71.799 A 25.701 25.701 0 0 0 352.051 70.3 A 27.537 27.537 0 0 0 353.412 69.738 A 23.638 23.638 0 0 0 359.751 65.65 Q 363.001 62.7 364.901 58.7 Q 366.801 54.7 367.201 50.1 A 13.379 13.379 0 0 0 367.249 49.56 Q 367.275 49.191 367.288 48.762 A 30.266 30.266 0 0 0 367.301 47.85 L 367.301 45.1 L 367.301 42.3 Q 367.301 41.381 367.258 40.678 A 13.814 13.814 0 0 0 367.201 40 Q 366.901 35.4 364.951 31.4 Q 363.001 27.4 359.751 24.4 A 22.212 22.212 0 0 0 358.051 22.981 A 24.333 24.333 0 0 0 352.051 19.7 A 24.733 24.733 0 0 0 347.802 18.509 Z M 237.501 31 L 231.001 31 A 21.434 21.434 0 0 0 227.911 31.207 Q 224.269 31.739 222.359 33.642 A 6.579 6.579 0 0 0 222.351 33.65 A 7.822 7.822 0 0 0 220.611 36.419 Q 220.134 37.657 219.907 39.211 A 21.435 21.435 0 0 0 219.701 42.3 L 219.701 68.3 A 2.591 2.591 0 0 1 218.926 70.175 A 3.269 3.269 0 0 1 218.901 70.2 A 2.711 2.711 0 0 1 217.944 70.833 A 2.634 2.634 0 0 1 217.001 71 L 209.401 71 A 2.591 2.591 0 0 1 207.526 70.225 A 3.269 3.269 0 0 1 207.501 70.2 A 2.711 2.711 0 0 1 206.868 69.243 A 2.634 2.634 0 0 1 206.701 68.3 L 206.701 21.7 A 2.591 2.591 0 0 1 207.476 19.825 A 3.269 3.269 0 0 1 207.501 19.8 A 2.711 2.711 0 0 1 208.458 19.167 A 2.634 2.634 0 0 1 209.401 19 L 217.001 19 A 2.591 2.591 0 0 1 218.876 19.775 A 3.269 3.269 0 0 1 218.901 19.8 A 2.711 2.711 0 0 1 219.534 20.757 A 2.634 2.634 0 0 1 219.701 21.7 L 219.701 24 A 21.104 21.104 0 0 1 223.441 21.22 A 18.534 18.534 0 0 1 225.251 20.3 A 13.437 13.437 0 0 1 227.838 19.483 Q 229.097 19.211 230.573 19.093 A 30.316 30.316 0 0 1 233.001 19 L 237.501 19 A 2.591 2.591 0 0 1 239.376 19.775 A 3.269 3.269 0 0 1 239.401 19.8 A 2.711 2.711 0 0 1 240.034 20.757 A 2.634 2.634 0 0 1 240.201 21.7 L 240.201 28.3 A 2.591 2.591 0 0 1 239.426 30.175 A 3.269 3.269 0 0 1 239.401 30.2 A 2.711 2.711 0 0 1 238.444 30.833 A 2.634 2.634 0 0 1 237.501 31 Z M 73.601 2.7 L 73.601 68.3 A 2.591 2.591 0 0 1 72.826 70.175 A 3.269 3.269 0 0 1 72.801 70.2 A 2.711 2.711 0 0 1 71.844 70.833 A 2.634 2.634 0 0 1 70.901 71 L 63.301 71 A 2.591 2.591 0 0 1 61.426 70.225 A 3.269 3.269 0 0 1 61.401 70.2 A 2.711 2.711 0 0 1 60.768 69.243 A 2.634 2.634 0 0 1 60.601 68.3 L 60.601 2.7 A 2.591 2.591 0 0 1 61.376 0.825 A 3.269 3.269 0 0 1 61.401 0.8 A 2.711 2.711 0 0 1 62.358 0.167 A 2.634 2.634 0 0 1 63.301 0 L 70.901 0 A 2.591 2.591 0 0 1 72.776 0.775 A 3.269 3.269 0 0 1 72.801 0.8 A 2.711 2.711 0 0 1 73.434 1.757 A 2.634 2.634 0 0 1 73.601 2.7 Z M 354.201 40.5 A 17.034 17.034 0 0 0 353.827 38.197 Q 353.545 37.012 353.097 36.032 A 9.289 9.289 0 0 0 352.751 35.35 Q 351.601 33.3 349.901 32.1 Q 348.201 30.9 346.201 30.45 Q 344.201 30 342.101 30 Q 340.001 30 338.001 30.45 Q 336.001 30.9 334.301 32.1 Q 332.601 33.3 331.451 35.35 A 10.429 10.429 0 0 0 330.56 37.503 Q 330.16 38.853 330.001 40.5 Q 329.932 41.047 329.888 41.781 A 36.836 36.836 0 0 0 329.851 42.5 Q 329.801 43.7 329.801 45 Q 329.801 46.3 329.851 47.55 Q 329.892 48.58 329.967 49.237 A 9.533 9.533 0 0 0 330.001 49.5 A 17.034 17.034 0 0 0 330.375 51.804 Q 330.657 52.988 331.105 53.968 A 9.289 9.289 0 0 0 331.451 54.65 Q 332.601 56.7 334.301 57.9 Q 336.001 59.1 338.001 59.55 Q 340.001 60 342.101 60 Q 344.201 60 346.201 59.55 Q 348.201 59.1 349.901 57.9 Q 351.601 56.7 352.751 54.65 A 10.429 10.429 0 0 0 353.642 52.498 Q 354.041 51.147 354.201 49.5 Q 354.301 48.8 354.301 47.55 L 354.301 45 L 354.301 42.5 Q 354.301 41.3 354.201 40.5 Z M 98.101 42.2 Q 97.801 45 98.101 47.8 Q 98.483 51.944 100.004 54.604 A 9.306 9.306 0 0 0 102.101 57.15 Q 105.501 60 110.401 60 Q 115.301 60 118.651 57.1 Q 122.001 54.2 122.501 48.8 A 19.569 19.569 0 0 0 122.619 47.619 Q 122.701 46.474 122.701 45 Q 122.701 43.455 122.611 42.271 A 19.146 19.146 0 0 0 122.501 41.2 A 14.625 14.625 0 0 0 121.637 37.372 A 11.076 11.076 0 0 0 118.651 33 A 11.682 11.682 0 0 0 111.454 30.036 A 15.22 15.22 0 0 0 110.401 30 A 13.988 13.988 0 0 0 106.137 30.626 A 11.796 11.796 0 0 0 102.101 32.85 Q 99.407 35.109 98.471 39.659 A 23.216 23.216 0 0 0 98.101 42.2 Z M 503.401 55.8 L 512.701 55.8 A 2.591 2.591 0 0 1 514.576 56.575 A 3.269 3.269 0 0 1 514.601 56.6 A 2.711 2.711 0 0 1 515.234 57.557 A 2.634 2.634 0 0 1 515.401 58.5 L 515.401 68.3 A 2.591 2.591 0 0 1 514.626 70.175 A 3.269 3.269 0 0 1 514.601 70.2 A 2.711 2.711 0 0 1 513.644 70.833 A 2.634 2.634 0 0 1 512.701 71 L 503.401 71 A 2.591 2.591 0 0 1 501.526 70.225 A 3.269 3.269 0 0 1 501.501 70.2 A 2.711 2.711 0 0 1 500.868 69.243 A 2.634 2.634 0 0 1 500.701 68.3 L 500.701 58.5 A 2.591 2.591 0 0 1 501.476 56.625 A 3.269 3.269 0 0 1 501.501 56.6 A 2.711 2.711 0 0 1 502.458 55.967 A 2.634 2.634 0 0 1 503.401 55.8 Z M 159.701 39.2 L 182.301 39.2 A 15.869 15.869 0 0 0 181.914 37.267 A 19.596 19.596 0 0 0 181.551 36.05 A 8.176 8.176 0 0 0 179.828 33.135 A 9.377 9.377 0 0 0 179.751 33.05 A 8.22 8.22 0 0 0 178.011 31.64 A 11.06 11.06 0 0 0 176.451 30.85 A 9.947 9.947 0 0 0 174.595 30.3 Q 173.661 30.113 172.569 30.042 A 21.343 21.343 0 0 0 171.201 30 Q 168.691 30 166.818 30.637 A 9.261 9.261 0 0 0 166.251 30.85 A 11.996 11.996 0 0 0 164.15 31.965 A 9.848 9.848 0 0 0 162.801 33.05 A 10.007 10.007 0 0 0 161.024 35.318 A 9.202 9.202 0 0 0 160.651 36.05 Q 159.901 37.7 159.701 39.2 Z M 34.301 48.8 L 34.301 47.8 L 20.701 50.2 Q 17.11 50.813 15.283 51.925 A 6.018 6.018 0 0 0 14.801 52.25 Q 13.001 53.6 13.001 55.9 A 3.159 3.159 0 0 0 13.45 57.59 Q 13.817 58.186 14.483 58.629 A 5.056 5.056 0 0 0 15.151 59 A 10.407 10.407 0 0 0 17.807 59.809 A 14.275 14.275 0 0 0 20.201 60 A 20.815 20.815 0 0 0 23.319 59.777 A 15.596 15.596 0 0 0 26.251 59.05 A 15.129 15.129 0 0 0 28.792 57.878 A 11.932 11.932 0 0 0 30.701 56.5 A 11.251 11.251 0 0 0 32.638 54.286 A 9.89 9.89 0 0 0 33.401 52.9 Q 34.301 50.9 34.301 48.8 Z" fill="#181C32"/>
</g>
</svg>