<svg width="421.26" height="100.8" viewBox="0 0 421.26 100.8" xmlns="http://www.w3.org/2000/svg"><g id="svgGroup" stroke-linecap="round" fill-rule="evenodd" font-size="9pt" stroke="#ffffff" stroke-width="0.30mm" fill="#ffffff" style="stroke:#ffffff;stroke-width:0.30mm;fill:#ffffff"><path d="M 118.72 54.46 L 118.72 95.62 A 3.627 3.627 0 0 1 117.635 98.245 A 4.574 4.574 0 0 1 117.6 98.28 A 3.795 3.795 0 0 1 116.26 99.166 A 3.687 3.687 0 0 1 114.94 99.4 L 104.3 99.4 A 3.627 3.627 0 0 1 101.675 98.315 A 4.574 4.574 0 0 1 101.64 98.28 A 3.795 3.795 0 0 1 100.754 96.94 A 3.687 3.687 0 0 1 100.52 95.62 L 100.52 91 A 20.396 20.396 0 0 1 96.53 95.085 Q 94.679 96.533 92.361 97.767 A 34.108 34.108 0 0 1 92.05 97.93 A 23.495 23.495 0 0 1 86.421 99.942 Q 83.829 100.532 80.811 100.716 A 46.43 46.43 0 0 1 77.98 100.8 Q 71.96 100.8 67.2 99.19 A 24.741 24.741 0 0 1 62.577 97.104 A 19.948 19.948 0 0 1 59.22 94.64 Q 56 91.7 54.25 87.71 A 21.018 21.018 0 0 1 52.552 80.574 A 24.873 24.873 0 0 1 52.5 78.96 A 21.854 21.854 0 0 1 53.465 72.306 A 17.355 17.355 0 0 1 59.36 63.84 Q 66.22 58.38 77.7 56.42 L 100.52 52.5 A 13.61 13.61 0 0 0 100.204 49.463 Q 99.428 46.072 96.74 44.38 A 14.905 14.905 0 0 0 91.912 42.456 Q 89.944 42.029 87.67 42.002 A 25.998 25.998 0 0 0 87.36 42 A 20.244 20.244 0 0 0 85.323 42.096 Q 83.248 42.306 81.9 42.98 A 15.5 15.5 0 0 0 79.271 44.659 A 18.801 18.801 0 0 0 78.12 45.64 A 12.196 12.196 0 0 1 77.279 46.327 Q 76.499 46.905 75.81 47.18 A 5.912 5.912 0 0 1 74.117 47.574 A 7.119 7.119 0 0 1 73.5 47.6 L 60.48 47.6 A 3.874 3.874 0 0 1 59.204 47.397 A 3.387 3.387 0 0 1 58.1 46.76 Q 57.192 45.981 57.366 44.721 A 3.41 3.41 0 0 1 57.4 44.52 A 15.614 15.614 0 0 1 58.248 41.672 Q 58.912 40.005 59.99 38.22 A 21.194 21.194 0 0 1 62.806 34.573 A 28.307 28.307 0 0 1 65.73 31.92 Q 69.44 28.98 74.83 27.09 Q 80.22 25.2 87.36 25.2 A 46.47 46.47 0 0 1 94.451 25.718 A 36.093 36.093 0 0 1 100.24 27.09 A 29.398 29.398 0 0 1 107.062 30.313 A 25.866 25.866 0 0 1 110.11 32.62 A 23.587 23.587 0 0 1 115.871 40.396 A 27.995 27.995 0 0 1 116.48 41.79 A 30.029 30.029 0 0 1 118.343 48.874 A 39.791 39.791 0 0 1 118.72 54.46 Z M 297.08 54.46 L 297.08 95.62 A 3.627 3.627 0 0 1 295.995 98.245 A 4.574 4.574 0 0 1 295.96 98.28 A 3.795 3.795 0 0 1 294.62 99.166 A 3.687 3.687 0 0 1 293.3 99.4 L 282.66 99.4 A 3.627 3.627 0 0 1 280.035 98.315 A 4.574 4.574 0 0 1 280 98.28 A 3.795 3.795 0 0 1 279.114 96.94 A 3.687 3.687 0 0 1 278.88 95.62 L 278.88 91 A 20.396 20.396 0 0 1 274.89 95.085 Q 273.039 96.533 270.721 97.767 A 34.108 34.108 0 0 1 270.41 97.93 A 23.495 23.495 0 0 1 264.781 99.942 Q 262.189 100.532 259.171 100.716 A 46.43 46.43 0 0 1 256.34 100.8 Q 250.32 100.8 245.56 99.19 A 24.741 24.741 0 0 1 240.937 97.104 A 19.948 19.948 0 0 1 237.58 94.64 Q 234.36 91.7 232.61 87.71 A 21.018 21.018 0 0 1 230.912 80.574 A 24.873 24.873 0 0 1 230.86 78.96 A 21.854 21.854 0 0 1 231.825 72.306 A 17.355 17.355 0 0 1 237.72 63.84 Q 244.58 58.38 256.06 56.42 L 278.88 52.5 A 13.61 13.61 0 0 0 278.564 49.463 Q 277.788 46.072 275.1 44.38 A 14.905 14.905 0 0 0 270.272 42.456 Q 268.304 42.029 266.03 42.002 A 25.998 25.998 0 0 0 265.72 42 A 20.244 20.244 0 0 0 263.683 42.096 Q 261.608 42.306 260.26 42.98 A 15.5 15.5 0 0 0 257.631 44.659 A 18.801 18.801 0 0 0 256.48 45.64 A 12.196 12.196 0 0 1 255.639 46.327 Q 254.859 46.905 254.17 47.18 A 5.912 5.912 0 0 1 252.477 47.574 A 7.119 7.119 0 0 1 251.86 47.6 L 238.84 47.6 A 3.874 3.874 0 0 1 237.564 47.397 A 3.387 3.387 0 0 1 236.46 46.76 Q 235.552 45.981 235.726 44.721 A 3.41 3.41 0 0 1 235.76 44.52 A 15.614 15.614 0 0 1 236.608 41.672 Q 237.272 40.005 238.35 38.22 A 21.194 21.194 0 0 1 241.166 34.573 A 28.307 28.307 0 0 1 244.09 31.92 Q 247.8 28.98 253.19 27.09 Q 258.58 25.2 265.72 25.2 A 46.47 46.47 0 0 1 272.811 25.718 A 36.093 36.093 0 0 1 278.6 27.09 A 29.398 29.398 0 0 1 285.422 30.313 A 25.866 25.866 0 0 1 288.47 32.62 A 23.587 23.587 0 0 1 294.231 40.396 A 27.995 27.995 0 0 1 294.84 41.79 A 30.029 30.029 0 0 1 296.703 48.874 A 39.791 39.791 0 0 1 297.08 54.46 Z M 333.9 92.4 L 333.9 95.62 A 3.627 3.627 0 0 1 332.815 98.245 A 4.574 4.574 0 0 1 332.78 98.28 A 3.795 3.795 0 0 1 331.44 99.166 A 3.687 3.687 0 0 1 330.12 99.4 L 319.48 99.4 A 3.627 3.627 0 0 1 316.855 98.315 A 4.574 4.574 0 0 1 316.82 98.28 A 3.795 3.795 0 0 1 315.934 96.94 A 3.687 3.687 0 0 1 315.7 95.62 L 315.7 3.78 A 3.627 3.627 0 0 1 316.785 1.155 A 4.574 4.574 0 0 1 316.82 1.12 A 3.795 3.795 0 0 1 318.16 0.234 A 3.687 3.687 0 0 1 319.48 0 L 330.12 0 A 3.627 3.627 0 0 1 332.745 1.085 A 4.574 4.574 0 0 1 332.78 1.12 A 3.795 3.795 0 0 1 333.666 2.46 A 3.687 3.687 0 0 1 333.9 3.78 L 333.9 33.6 A 18.436 18.436 0 0 1 334.926 32.542 Q 335.76 31.743 336.84 30.87 Q 338.632 29.423 341.169 28.18 A 31.421 31.421 0 0 1 341.25 28.14 Q 343.83 26.885 347.243 26.047 A 41.045 41.045 0 0 1 347.27 26.04 Q 350.647 25.213 354.905 25.2 A 44.6 44.6 0 0 1 355.04 25.2 A 30.954 30.954 0 0 1 362.884 26.163 A 26.556 26.556 0 0 1 367.71 27.93 Q 373.38 30.66 377.37 35.21 A 34.932 34.932 0 0 1 383.634 45.617 A 39.281 39.281 0 0 1 383.67 45.71 Q 385.98 51.66 386.26 58.1 A 56.851 56.851 0 0 1 386.346 59.774 Q 386.4 61.25 386.4 63 A 96.935 96.935 0 0 1 386.381 65.002 Q 386.358 66.092 386.31 67.053 A 52.271 52.271 0 0 1 386.26 67.9 Q 385.98 74.34 383.67 80.29 A 35.032 35.032 0 0 1 377.618 90.504 A 33.489 33.489 0 0 1 377.37 90.79 Q 373.38 95.34 367.71 98.07 A 27.756 27.756 0 0 1 358.091 100.665 A 33.781 33.781 0 0 1 355.04 100.8 A 38.497 38.497 0 0 1 351.049 100.603 A 28.193 28.193 0 0 1 347.27 99.96 Q 343.84 99.12 341.25 97.86 A 27.104 27.104 0 0 1 338.922 96.59 A 19.805 19.805 0 0 1 336.84 95.13 A 33.503 33.503 0 0 1 335.574 94.057 Q 334.965 93.514 334.464 93.002 A 16.832 16.832 0 0 1 333.9 92.4 Z M 161.28 43.4 L 161.28 73.08 Q 161.28 77.073 163.235 79.584 A 8.288 8.288 0 0 0 163.59 80.01 A 6.297 6.297 0 0 0 165.825 81.563 Q 167.836 82.436 170.979 82.574 A 27.84 27.84 0 0 0 172.2 82.6 L 180.74 82.6 A 3.627 3.627 0 0 1 183.365 83.685 A 4.574 4.574 0 0 1 183.4 83.72 A 3.795 3.795 0 0 1 184.286 85.06 A 3.687 3.687 0 0 1 184.52 86.38 L 184.52 95.62 A 3.627 3.627 0 0 1 183.435 98.245 A 4.574 4.574 0 0 1 183.4 98.28 A 3.795 3.795 0 0 1 182.06 99.166 A 3.687 3.687 0 0 1 180.74 99.4 L 170.38 99.4 A 43.645 43.645 0 0 1 162.574 98.747 Q 154.956 97.36 150.15 93.03 Q 144.116 87.593 143.232 77.21 A 43.759 43.759 0 0 1 143.08 73.5 L 143.08 43.4 L 133.84 43.4 A 3.627 3.627 0 0 1 131.215 42.315 A 4.574 4.574 0 0 1 131.18 42.28 A 3.795 3.795 0 0 1 130.294 40.94 A 3.687 3.687 0 0 1 130.06 39.62 L 130.06 30.38 A 3.627 3.627 0 0 1 131.145 27.755 A 4.574 4.574 0 0 1 131.18 27.72 A 3.795 3.795 0 0 1 132.52 26.834 A 3.687 3.687 0 0 1 133.84 26.6 L 143.08 26.6 L 143.08 3.78 A 3.627 3.627 0 0 1 144.165 1.155 A 4.574 4.574 0 0 1 144.2 1.12 A 3.795 3.795 0 0 1 145.54 0.234 A 3.687 3.687 0 0 1 146.86 0 L 157.5 0 A 3.627 3.627 0 0 1 160.125 1.085 A 4.574 4.574 0 0 1 160.16 1.12 A 3.795 3.795 0 0 1 161.046 2.46 A 3.687 3.687 0 0 1 161.28 3.78 L 161.28 26.6 L 179.34 26.6 A 3.627 3.627 0 0 1 181.965 27.685 A 4.574 4.574 0 0 1 182 27.72 A 3.795 3.795 0 0 1 182.886 29.06 A 3.687 3.687 0 0 1 183.12 30.38 L 183.12 39.62 A 3.627 3.627 0 0 1 182.035 42.245 A 4.574 4.574 0 0 1 182 42.28 A 3.795 3.795 0 0 1 180.66 43.166 A 3.687 3.687 0 0 1 179.34 43.4 L 161.28 43.4 Z M 43.12 43.4 L 34.02 43.4 Q 25.634 43.4 21.922 47.098 A 9.211 9.211 0 0 0 21.91 47.11 A 10.951 10.951 0 0 0 19.474 50.987 Q 18.807 52.72 18.489 54.895 A 30.009 30.009 0 0 0 18.2 59.22 L 18.2 95.62 A 3.627 3.627 0 0 1 17.115 98.245 A 4.574 4.574 0 0 1 17.08 98.28 A 3.795 3.795 0 0 1 15.74 99.166 A 3.687 3.687 0 0 1 14.42 99.4 L 3.78 99.4 A 3.627 3.627 0 0 1 1.155 98.315 A 4.574 4.574 0 0 1 1.12 98.28 A 3.795 3.795 0 0 1 0.234 96.94 A 3.687 3.687 0 0 1 0 95.62 L 0 30.38 A 3.627 3.627 0 0 1 1.085 27.755 A 4.574 4.574 0 0 1 1.12 27.72 A 3.795 3.795 0 0 1 2.46 26.834 A 3.687 3.687 0 0 1 3.78 26.6 L 14.42 26.6 A 3.627 3.627 0 0 1 17.045 27.685 A 4.574 4.574 0 0 1 17.08 27.72 A 3.795 3.795 0 0 1 17.966 29.06 A 3.687 3.687 0 0 1 18.2 30.38 L 18.2 33.6 A 29.546 29.546 0 0 1 23.437 29.708 A 25.948 25.948 0 0 1 25.97 28.42 Q 28.999 27.085 33.421 26.73 A 42.442 42.442 0 0 1 36.82 26.6 L 43.12 26.6 A 3.627 3.627 0 0 1 45.745 27.685 A 4.574 4.574 0 0 1 45.78 27.72 A 3.795 3.795 0 0 1 46.666 29.06 A 3.687 3.687 0 0 1 46.9 30.38 L 46.9 39.62 A 3.627 3.627 0 0 1 45.815 42.245 A 4.574 4.574 0 0 1 45.78 42.28 A 3.795 3.795 0 0 1 44.44 43.166 A 3.687 3.687 0 0 1 43.12 43.4 Z M 216.44 3.78 L 216.44 95.62 A 3.627 3.627 0 0 1 215.355 98.245 A 4.574 4.574 0 0 1 215.32 98.28 A 3.795 3.795 0 0 1 213.98 99.166 A 3.687 3.687 0 0 1 212.66 99.4 L 202.02 99.4 A 3.627 3.627 0 0 1 199.395 98.315 A 4.574 4.574 0 0 1 199.36 98.28 A 3.795 3.795 0 0 1 198.474 96.94 A 3.687 3.687 0 0 1 198.24 95.62 L 198.24 3.78 A 3.627 3.627 0 0 1 199.325 1.155 A 4.574 4.574 0 0 1 199.36 1.12 A 3.795 3.795 0 0 1 200.7 0.234 A 3.687 3.687 0 0 1 202.02 0 L 212.66 0 A 3.627 3.627 0 0 1 215.285 1.085 A 4.574 4.574 0 0 1 215.32 1.12 A 3.795 3.795 0 0 1 216.206 2.46 A 3.687 3.687 0 0 1 216.44 3.78 Z M 368.06 59.08 A 30.329 30.329 0 0 0 367.216 54.127 Q 365.807 48.796 362.46 45.99 A 17.005 17.005 0 0 0 352.779 42.084 A 22.127 22.127 0 0 0 350.84 42 A 18.54 18.54 0 0 0 344.886 42.923 A 15.946 15.946 0 0 0 339.29 46.2 A 15.884 15.884 0 0 0 334.5 54.233 A 21.995 21.995 0 0 0 333.9 57.68 Q 333.62 59.78 333.62 63 A 61.522 61.522 0 0 0 333.653 65.082 Q 333.685 66.012 333.747 66.821 A 26.804 26.804 0 0 0 333.9 68.32 A 21.762 21.762 0 0 0 334.919 73.302 A 14.905 14.905 0 0 0 339.29 79.94 A 16.552 16.552 0 0 0 348.903 83.915 A 21.699 21.699 0 0 0 350.84 84 A 19.583 19.583 0 0 0 356.81 83.123 A 16.514 16.514 0 0 0 362.46 80.01 A 13.616 13.616 0 0 0 366.061 75.148 Q 367.614 71.756 368.06 66.92 Q 368.48 63 368.06 59.08 Z M 404.46 78.12 L 417.48 78.12 A 3.627 3.627 0 0 1 420.105 79.205 A 4.574 4.574 0 0 1 420.14 79.24 A 3.795 3.795 0 0 1 421.026 80.58 A 3.687 3.687 0 0 1 421.26 81.9 L 421.26 95.62 A 3.627 3.627 0 0 1 420.175 98.245 A 4.574 4.574 0 0 1 420.14 98.28 A 3.795 3.795 0 0 1 418.8 99.166 A 3.687 3.687 0 0 1 417.48 99.4 L 404.46 99.4 A 3.627 3.627 0 0 1 401.835 98.315 A 4.574 4.574 0 0 1 401.8 98.28 A 3.795 3.795 0 0 1 400.914 96.94 A 3.687 3.687 0 0 1 400.68 95.62 L 400.68 81.9 A 3.627 3.627 0 0 1 401.765 79.275 A 4.574 4.574 0 0 1 401.8 79.24 A 3.795 3.795 0 0 1 403.14 78.354 A 3.687 3.687 0 0 1 404.46 78.12 Z M 100.52 68.32 L 100.52 66.92 L 81.48 70.28 Q 76.453 71.139 73.896 72.695 A 8.426 8.426 0 0 0 73.22 73.15 A 5.975 5.975 0 0 0 70.74 77.476 A 7.641 7.641 0 0 0 70.7 78.26 Q 70.7 80.701 72.775 82.081 A 7.079 7.079 0 0 0 73.71 82.6 A 14.569 14.569 0 0 0 77.429 83.732 A 19.984 19.984 0 0 0 80.78 84 A 29.141 29.141 0 0 0 85.145 83.688 A 21.834 21.834 0 0 0 89.25 82.67 A 21.181 21.181 0 0 0 92.808 81.029 A 16.705 16.705 0 0 0 95.48 79.1 A 15.751 15.751 0 0 0 98.192 76 A 13.846 13.846 0 0 0 99.26 74.06 Q 100.52 71.26 100.52 68.32 Z M 278.88 68.32 L 278.88 66.92 L 259.84 70.28 Q 254.813 71.139 252.256 72.695 A 8.426 8.426 0 0 0 251.58 73.15 A 5.975 5.975 0 0 0 249.1 77.476 A 7.641 7.641 0 0 0 249.06 78.26 Q 249.06 80.701 251.135 82.081 A 7.079 7.079 0 0 0 252.07 82.6 A 14.569 14.569 0 0 0 255.789 83.732 A 19.984 19.984 0 0 0 259.14 84 A 29.141 29.141 0 0 0 263.505 83.688 A 21.834 21.834 0 0 0 267.61 82.67 A 21.181 21.181 0 0 0 271.168 81.029 A 16.705 16.705 0 0 0 273.84 79.1 A 15.751 15.751 0 0 0 276.552 76 A 13.846 13.846 0 0 0 277.62 74.06 Q 278.88 71.26 278.88 68.32 Z" vector-effect="non-scaling-stroke"/></g></svg>